<svg id="Capa_1" enable-background="new 0 0 512 512" height="512" viewBox="0 0 512 512" width="512" xmlns="http://www.w3.org/2000/svg"><g><g><path d="m494.775 52.01c9.608-9.608 9.608-25.185 0-34.793-9.608-9.608-25.185-9.608-34.793 0l-199.588 199.588 34.793 34.793z" fill="#d2a19d"/><path d="m267.574 290.808-46.391-46.39 24.714-42.11 63.787 63.787z" fill="#ffe7b1"/><path d="m126.44 501.972-116.42-116.42 94.235-94.235c26.135-26.135 68.507-26.135 94.642 0l21.778 21.778c26.135 26.135 26.135 68.507 0 94.642z" fill="#ffe7b1"/><path d="m224.417 316.837-31.581-31.581c-9.534-9.534-9.534-24.991 0-34.525l.068-.068c9.534-9.534 24.991-9.534 34.525 0l31.581 31.581c9.534 9.534 9.534 24.991 0 34.525l-.068.068c-9.534 9.533-24.991 9.533-34.525 0z" fill="#c193dc"/><g fill="#ffe7b1"><path d="m130.603 49.003 18.81 34.392 34.393 18.81-34.393 18.809-18.81 34.393-18.809-34.393-34.393-18.809 34.393-18.81z"/><path d="m415.98 334.866 18.81 34.392 34.392 18.81-34.392 18.809-18.81 34.393-18.81-34.393-34.392-18.809 34.392-18.81z"/></g></g><g><circle cx="403.679" cy="143.106" r="10"/><circle cx="256" cy="49.003" r="10"/><circle cx="327.301" cy="73.605" r="10"/><circle cx="387.199" cy="285.202" r="10"/><circle cx="418.86" cy="225.573" r="10"/><path d="m501.86 10.132c-13.499-13.498-35.465-13.498-48.964 0l-192.502 192.503-7.412-7.412c-2.195-2.194-5.287-3.245-8.357-2.854-3.077.394-5.799 2.191-7.369 4.867l-21.565 36.744c-10.567-1.702-21.778 1.503-29.908 9.632-6.123 6.123-9.448 13.996-9.993 22.025-7.712-2.543-15.858-3.886-24.215-3.886-20.587 0-39.941 8.017-54.499 22.574l-94.141 94.142c-3.913 3.913-3.913 10.257 0 14.17l116.42 116.42c1.957 1.956 4.521 2.934 7.085 2.934 2.565 0 5.128-.978 7.085-2.934l94.143-94.143c14.557-14.557 22.573-33.912 22.573-54.499 0-9.24-1.627-18.226-4.724-26.647 7.758-.854 14.945-4.283 20.544-9.881 6.513-6.512 10.099-15.171 10.099-24.381 0-.697-.027-1.389-.068-2.079l38.664-22.691c2.676-1.57 4.473-4.292 4.867-7.369s-.659-6.163-2.853-8.357l-7.412-7.412 69.316-69.317c3.913-3.912 3.913-10.257 0-14.17-3.914-3.913-10.256-3.913-14.17 0l-69.316 69.317-20.622-20.623 192.501-192.503c5.686-5.685 14.937-5.686 20.623 0 5.686 5.685 5.686 14.937 0 20.622l-58.686 58.685c-3.913 3.913-3.913 10.257 0 14.17 3.914 3.914 10.256 3.913 14.17 0l58.686-58.685c6.539-6.538 10.14-15.232 10.14-24.481s-3.601-17.942-10.14-24.481zm-288.363 390.612-87.058 87.058-26.643-26.644 29.861-29.86c3.913-3.913 3.913-10.257 0-14.17-3.912-3.912-10.254-3.913-14.17 0l-29.861 29.86-20.622-20.622 29.861-29.861c3.913-3.913 3.913-10.257 0-14.17-3.914-3.912-10.256-3.912-14.17 0l-29.861 29.861-26.644-26.644 87.058-87.058c22.237-22.237 58.42-22.239 80.657 0l21.593 21.593c10.772 10.772 16.704 25.094 16.704 40.328 0 15.235-5.933 29.557-16.705 40.329zm38.394-91.026c-2.727 2.728-6.354 4.23-10.211 4.23s-7.483-1.502-10.21-4.229l-31.515-31.513c-5.63-5.631-5.63-14.793 0-20.423 2.815-2.816 6.513-4.223 10.211-4.223 3.693 0 7.387 1.405 10.201 4.213l31.524 31.524c2.728 2.728 4.23 6.354 4.23 10.211s-1.502 7.482-4.23 10.21zm17.291-31.471-35.437-35.437 14.233-24.252 45.456 45.456z"/><path d="m72.593 110.995 31.818 17.402 17.402 31.817c1.757 3.213 5.128 5.212 8.791 5.212 3.662 0 7.033-1.999 8.791-5.212l17.401-31.817 31.818-17.402c3.213-1.757 5.211-5.128 5.211-8.791s-1.998-7.033-5.211-8.791l-31.818-17.402-17.401-31.817c-1.757-3.213-5.128-5.212-8.791-5.212-3.662 0-7.033 1.999-8.791 5.212l-17.402 31.817-31.818 17.403c-3.213 1.757-5.211 5.128-5.211 8.791s1.998 7.033 5.211 8.79zm44.009-18.81c1.681-.919 3.063-2.301 3.982-3.983l10.02-18.319 10.019 18.319c.92 1.681 2.301 3.064 3.982 3.983l18.319 10.019-18.319 10.019c-1.681.919-3.063 2.302-3.982 3.983l-10.019 18.319-10.02-18.319c-.92-1.682-2.301-3.064-3.982-3.983l-18.32-10.019z"/><path d="m473.99 379.277-31.818-17.402-17.401-31.817c-1.757-3.213-5.128-5.212-8.791-5.212-3.662 0-7.033 1.999-8.791 5.212l-17.402 31.817-31.818 17.402c-3.213 1.757-5.211 5.128-5.211 8.791 0 3.662 1.998 7.033 5.211 8.791l31.818 17.402 17.402 31.818c1.757 3.213 5.128 5.212 8.791 5.212 3.662 0 7.033-1.999 8.791-5.212l17.401-31.818 31.818-17.402c3.213-1.757 5.211-5.128 5.211-8.791.001-3.663-1.997-7.033-5.211-8.791zm-44.009 18.81c-1.681.919-3.063 2.302-3.982 3.983l-10.019 18.319-10.02-18.319c-.92-1.681-2.301-3.064-3.982-3.983l-18.32-10.019 18.32-10.02c1.681-.919 3.063-2.301 3.982-3.983l10.02-18.319 10.019 18.319c.92 1.681 2.301 3.064 3.982 3.983l18.32 10.02z"/></g></g></svg>